<svg 
 xmlns="http://www.w3.org/2000/svg"
 xmlns:xlink="http://www.w3.org/1999/xlink"
 width="16px" height="15px">
<path fill-rule="evenodd"  fill="rgb(153, 153, 153)"
 d="M13.002,14.086 L3.002,14.086 C1.345,14.086 0.001,12.743 0.001,11.086 L0.001,6.089 C0.001,4.433 1.345,3.090 3.002,3.090 L3.763,3.090 C3.252,3.725 2.840,4.443 2.541,5.215 C2.225,5.383 2.002,5.705 2.002,6.089 L2.002,11.086 C2.002,11.639 2.449,12.086 3.002,12.086 L13.002,12.086 C13.554,12.086 14.001,11.639 14.001,11.086 L14.001,8.587 L16.001,7.088 L16.001,11.086 C16.001,12.743 14.659,14.086 13.002,14.086 ZM11.601,7.887 C11.425,8.020 11.213,8.088 11.001,8.088 C10.849,8.088 10.696,8.052 10.554,7.983 C10.215,7.813 10.001,7.467 10.001,7.089 L10.001,6.089 C7.390,6.089 5.175,7.759 4.350,10.087 C4.128,9.462 4.001,8.790 4.001,8.088 C4.001,4.776 6.688,2.090 10.001,2.090 L10.001,1.091 C10.001,0.713 10.215,0.366 10.554,0.197 C10.696,0.126 10.849,0.092 11.001,0.092 C11.213,0.092 11.425,0.159 11.601,0.292 L15.601,3.291 C15.853,3.479 16.001,3.775 16.001,4.090 C16.001,4.405 15.853,4.701 15.601,4.889 L11.601,7.887 Z"/>
</svg>